<svg id="my-svg" width="100%" xmlns="http://www.w3.org/2000/svg" xmlns:xlink="http://www.w3.org/1999/xlink" class="classDiagram" style="max-width: 806.789px; background-color: transparent;" viewBox="0 0 806.7890625 709" role="graphics-document document" aria-roledescription="class"><style>#my-svg{font-family:"trebuchet ms",verdana,arial,sans-serif;font-size:16px;fill:#333;}@keyframes edge-animation-frame{from{stroke-dashoffset:0;}}@keyframes dash{to{stroke-dashoffset:0;}}#my-svg .edge-animation-slow{stroke-dasharray:9,5!important;stroke-dashoffset:900;animation:dash 50s linear infinite;stroke-linecap:round;}#my-svg .edge-animation-fast{stroke-dasharray:9,5!important;stroke-dashoffset:900;animation:dash 20s linear infinite;stroke-linecap:round;}#my-svg .error-icon{fill:#552222;}#my-svg .error-text{fill:#552222;stroke:#552222;}#my-svg .edge-thickness-normal{stroke-width:1px;}#my-svg .edge-thickness-thick{stroke-width:3.5px;}#my-svg .edge-pattern-solid{stroke-dasharray:0;}#my-svg .edge-thickness-invisible{stroke-width:0;fill:none;}#my-svg .edge-pattern-dashed{stroke-dasharray:3;}#my-svg .edge-pattern-dotted{stroke-dasharray:2;}#my-svg .marker{fill:#333333;stroke:#333333;}#my-svg .marker.cross{stroke:#333333;}#my-svg svg{font-family:"trebuchet ms",verdana,arial,sans-serif;font-size:16px;}#my-svg p{margin:0;}#my-svg g.classGroup text{fill:#9370DB;stroke:none;font-family:"trebuchet ms",verdana,arial,sans-serif;font-size:10px;}#my-svg g.classGroup text .title{font-weight:bolder;}#my-svg .cluster-label text{fill:#333;}#my-svg .cluster-label span{color:#333;}#my-svg .cluster-label span p{background-color:transparent;}#my-svg .cluster rect{fill:#ffffde;stroke:#aaaa33;stroke-width:1px;}#my-svg .cluster text{fill:#333;}#my-svg .cluster span{color:#333;}#my-svg .nodeLabel,#my-svg .edgeLabel{color:#131300;}#my-svg .noteLabel .nodeLabel,#my-svg .noteLabel .edgeLabel{color:black;}#my-svg .edgeLabel .label rect{fill:#ECECFF;}#my-svg .label text{fill:#131300;}#my-svg .labelBkg{background:#ECECFF;}#my-svg .edgeLabel .label span{background:#ECECFF;}#my-svg .classTitle{font-weight:bolder;}#my-svg .node rect,#my-svg .node circle,#my-svg .node ellipse,#my-svg .node polygon,#my-svg .node path{fill:#ECECFF;stroke:#9370DB;stroke-width:1;}#my-svg .divider{stroke:#9370DB;stroke-width:1;}#my-svg g.clickable{cursor:pointer;}#my-svg g.classGroup rect{fill:#ECECFF;stroke:#9370DB;}#my-svg g.classGroup line{stroke:#9370DB;stroke-width:1;}#my-svg .classLabel .box{stroke:none;stroke-width:0;fill:#ECECFF;opacity:0.5;}#my-svg .classLabel .label{fill:#9370DB;font-size:10px;}#my-svg .relation{stroke:#333333;stroke-width:1;fill:none;}#my-svg .dashed-line{stroke-dasharray:3;}#my-svg .dotted-line{stroke-dasharray:1 2;}#my-svg [id$="-compositionStart"],#my-svg .composition{fill:#333333!important;stroke:#333333!important;stroke-width:1;}#my-svg [id$="-compositionEnd"],#my-svg .composition{fill:#333333!important;stroke:#333333!important;stroke-width:1;}#my-svg [id$="-dependencyStart"],#my-svg .dependency{fill:#333333!important;stroke:#333333!important;stroke-width:1;}#my-svg [id$="-dependencyEnd"],#my-svg .dependency{fill:#333333!important;stroke:#333333!important;stroke-width:1;}#my-svg [id$="-extensionStart"],#my-svg .extension{fill:transparent!important;stroke:#333333!important;stroke-width:1;}#my-svg [id$="-extensionEnd"],#my-svg .extension{fill:transparent!important;stroke:#333333!important;stroke-width:1;}#my-svg [id$="-aggregationStart"],#my-svg .aggregation{fill:transparent!important;stroke:#333333!important;stroke-width:1;}#my-svg [id$="-aggregationEnd"],#my-svg .aggregation{fill:transparent!important;stroke:#333333!important;stroke-width:1;}#my-svg [id$="-lollipopStart"],#my-svg .lollipop{fill:#ECECFF!important;stroke:#333333!important;stroke-width:1;}#my-svg [id$="-lollipopEnd"],#my-svg .lollipop{fill:#ECECFF!important;stroke:#333333!important;stroke-width:1;}#my-svg .edgeTerminals{font-size:11px;line-height:initial;}#my-svg .classTitleText{text-anchor:middle;font-size:18px;fill:#333;}#my-svg .edgeLabel[data-look="neo"]{background-color:rgba(232,232,232, 0.8);text-align:center;}#my-svg .edgeLabel[data-look="neo"] p{background-color:rgba(232,232,232, 0.8);}#my-svg .edgeLabel[data-look="neo"] rect{opacity:0.5;background-color:rgba(232,232,232, 0.8);fill:rgba(232,232,232, 0.8);}#my-svg .label-icon{display:inline-block;height:1em;overflow:visible;vertical-align:-0.125em;}#my-svg .node .label-icon path{fill:currentColor;stroke:revert;stroke-width:revert;}#my-svg .node .neo-node{stroke:#9370DB;}#my-svg [data-look="neo"].node rect,#my-svg [data-look="neo"].cluster rect,#my-svg [data-look="neo"].node polygon{stroke:#9370DB;filter:drop-shadow(1px 2px 2px rgba(185, 185, 185, 1));}#my-svg [data-look="neo"].swimlane.cluster rect{filter:none;}#my-svg [data-look="neo"].node path{stroke:#9370DB;stroke-width:1px;}#my-svg [data-look="neo"].node .outer-path{filter:drop-shadow(1px 2px 2px rgba(185, 185, 185, 1));}#my-svg [data-look="neo"].node .neo-line path{stroke:#9370DB;filter:none;}#my-svg [data-look="neo"].node circle{stroke:#9370DB;filter:drop-shadow(1px 2px 2px rgba(185, 185, 185, 1));}#my-svg [data-look="neo"].node circle .state-start{fill:#000000;}#my-svg [data-look="neo"].icon-shape .icon{fill:#9370DB;filter:drop-shadow(1px 2px 2px rgba(185, 185, 185, 1));}#my-svg [data-look="neo"].icon-shape .icon-neo path{stroke:#9370DB;filter:drop-shadow(1px 2px 2px rgba(185, 185, 185, 1));}#my-svg :root{--mermaid-font-family:"trebuchet ms",verdana,arial,sans-serif;}</style><g><defs><marker id="my-svg_class-aggregationStart" class="marker aggregation class" refX="18" refY="7" markerWidth="190" markerHeight="240" orient="auto"><path d="M 18,7 L9,13 L1,7 L9,1 Z"/></marker></defs><defs><marker id="my-svg_class-aggregationEnd" class="marker aggregation class" refX="1" refY="7" markerWidth="20" markerHeight="28" orient="auto"><path d="M 18,7 L9,13 L1,7 L9,1 Z"/></marker></defs><defs><marker id="my-svg_class-aggregationStart-margin" class="marker aggregation class" refX="15" refY="7" markerWidth="190" markerHeight="240" orient="auto" markerUnits="userSpaceOnUse"><path d="M 18,7 L9,13 L1,7 L9,1 Z" style="stroke-width: 2;"/></marker></defs><defs><marker id="my-svg_class-aggregationEnd-margin" class="marker aggregation class" refX="1" refY="7" markerWidth="20" markerHeight="28" orient="auto" markerUnits="userSpaceOnUse"><path d="M 18,7 L9,13 L1,7 L9,1 Z" style="stroke-width: 2;"/></marker></defs><defs><marker id="my-svg_class-extensionStart" class="marker extension class" refX="18" refY="7" markerWidth="20" markerHeight="28" orient="auto" markerUnits="userSpaceOnUse"><path d="M 1,7 L18,13 V 1 Z"/></marker></defs><defs><marker id="my-svg_class-extensionEnd" class="marker extension class" refX="1" refY="7" markerWidth="20" markerHeight="28" orient="auto"><path d="M 1,1 V 13 L18,7 Z"/></marker></defs><marker id="my-svg_class-extensionStart-margin" class="marker extension class" refX="18" refY="7" markerWidth="20" markerHeight="28" orient="auto" markerUnits="userSpaceOnUse" viewBox="0 0 20 14"><polygon points="10,7 18,13 18,1" style="stroke-width: 2; stroke-dasharray: 0;"/></marker><defs><marker id="my-svg_class-extensionEnd-margin" class="marker extension class" refX="9" refY="7" markerWidth="20" markerHeight="28" orient="auto" markerUnits="userSpaceOnUse" viewBox="0 0 20 14"><polygon points="10,1 10,13 18,7" style="stroke-width: 2; stroke-dasharray: 0;"/></marker></defs><defs><marker id="my-svg_class-compositionStart" class="marker composition class" refX="18" refY="7" markerWidth="190" markerHeight="240" orient="auto"><path d="M 18,7 L9,13 L1,7 L9,1 Z"/></marker></defs><defs><marker id="my-svg_class-compositionEnd" class="marker composition class" refX="1" refY="7" markerWidth="20" markerHeight="28" orient="auto"><path d="M 18,7 L9,13 L1,7 L9,1 Z"/></marker></defs><defs><marker id="my-svg_class-compositionStart-margin" class="marker composition class" refX="15" refY="7" markerWidth="190" markerHeight="240" orient="auto" markerUnits="userSpaceOnUse"><path viewBox="0 0 15 15" d="M 18,7 L9,13 L1,7 L9,1 Z" style="stroke-width: 0;"/></marker></defs><defs><marker id="my-svg_class-compositionEnd-margin" class="marker composition class" refX="3.5" refY="7" markerWidth="20" markerHeight="28" orient="auto" markerUnits="userSpaceOnUse"><path d="M 18,7 L9,13 L1,7 L9,1 Z" style="stroke-width: 0;"/></marker></defs><defs><marker id="my-svg_class-dependencyStart" class="marker dependency class" refX="6" refY="7" markerWidth="190" markerHeight="240" orient="auto"><path d="M 5,7 L9,13 L1,7 L9,1 Z"/></marker></defs><defs><marker id="my-svg_class-dependencyEnd" class="marker dependency class" refX="13" refY="7" markerWidth="20" markerHeight="28" orient="auto"><path d="M 18,7 L9,13 L14,7 L9,1 Z"/></marker></defs><defs><marker id="my-svg_class-dependencyStart-margin" class="marker dependency class" refX="4" refY="7" markerWidth="190" markerHeight="240" orient="auto" markerUnits="userSpaceOnUse"><path d="M 5,7 L9,13 L1,7 L9,1 Z" style="stroke-width: 0;"/></marker></defs><defs><marker id="my-svg_class-dependencyEnd-margin" class="marker dependency class" refX="16" refY="7" markerWidth="20" markerHeight="28" orient="auto" markerUnits="userSpaceOnUse"><path d="M 18,7 L9,13 L14,7 L9,1 Z" style="stroke-width: 0;"/></marker></defs><defs><marker id="my-svg_class-lollipopStart" class="marker lollipop class" refX="13" refY="7" markerWidth="190" markerHeight="240" orient="auto"><circle fill="transparent" cx="7" cy="7" r="6"/></marker></defs><defs><marker id="my-svg_class-lollipopEnd" class="marker lollipop class" refX="1" refY="7" markerWidth="190" markerHeight="240" orient="auto"><circle fill="transparent" cx="7" cy="7" r="6"/></marker></defs><defs><marker id="my-svg_class-lollipopStart-margin" class="marker lollipop class" refX="13" refY="7" markerWidth="190" markerHeight="240" orient="auto" markerUnits="userSpaceOnUse"><circle fill="transparent" cx="7" cy="7" r="6" stroke-width="2"/></marker></defs><defs><marker id="my-svg_class-lollipopEnd-margin" class="marker lollipop class" refX="1" refY="7" markerWidth="190" markerHeight="240" orient="auto" markerUnits="userSpaceOnUse"><circle fill="transparent" cx="7" cy="7" r="6" stroke-width="2"/></marker></defs><g class="root"><g class="clusters"/><g class="edgePaths"><path d="M426.102,62.601L433.767,60.501C441.432,58.401,456.763,54.2,478.118,52.1C499.473,50,526.852,50,540.541,50L554.23,50" id="my-svg-id_VirtualTimeHarness_VirtualTimeScenario_1" class="edge-thickness-normal edge-pattern-dashed relation" style=";;;" data-edge="true" data-et="edge" data-id="id_VirtualTimeHarness_VirtualTimeScenario_1" data-points="W3sieCI6NDI2LjEwMTU2MjUsInkiOjYyLjYwMDc2MDMzNDgwMjg4NX0seyJ4Ijo0NzIuMDkzNzUsInkiOjUwfSx7IngiOjU2MC4yMzA0Njg3NSwieSI6NTB9XQ==" data-look="classic" marker-end="url(#my-svg_class-dependencyEnd)"/><path d="M426.102,171.399L433.767,173.499C441.432,175.599,456.763,179.8,477.214,181.9C497.665,184,523.237,184,536.023,184L548.809,184" id="my-svg-id_VirtualTimeHarness_VirtualTimeRunResult_2" class="edge-thickness-normal edge-pattern-dashed relation" style=";;;" data-edge="true" data-et="edge" data-id="id_VirtualTimeHarness_VirtualTimeRunResult_2" data-points="W3sieCI6NDI2LjEwMTU2MjUsInkiOjE3MS4zOTkyMzk2NjUxOTcxMX0seyJ4Ijo0NzIuMDkzNzUsInkiOjE4NH0seyJ4Ijo1NTQuODA4NTkzNzUsInkiOjE4NH1d" data-look="classic" marker-end="url(#my-svg_class-dependencyEnd)"/><path d="M420.367,356.249L428.988,354.874C437.609,353.5,454.852,350.75,466.639,349.375C478.427,348,484.76,348,487.927,348L491.094,348" id="my-svg-id_RealTimeHarness_RealTimeScenario_3" class="edge-thickness-normal edge-pattern-dashed relation" style=";;;" data-edge="true" data-et="edge" data-id="id_RealTimeHarness_RealTimeScenario_3" data-points="W3sieCI6NDIwLjM2NzE4NzUsInkiOjM1Ni4yNDkyODExOTYwODk3fSx7IngiOjQ3Mi4wOTM3NSwieSI6MzQ4fSx7IngiOjQ5Ny4wOTM3NSwieSI6MzQ4fV0=" data-look="classic" marker-end="url(#my-svg_class-dependencyEnd)"/><path d="M420.367,472.944L428.988,476.787C437.609,480.63,454.852,488.315,468.131,495.045C481.409,501.774,490.725,507.549,495.383,510.436L500.041,513.323" id="my-svg-id_RealTimeHarness_RealTimeRunResult_4" class="edge-thickness-normal edge-pattern-dashed relation" style=";;;" data-edge="true" data-et="edge" data-id="id_RealTimeHarness_RealTimeRunResult_4" data-points="W3sieCI6NDIwLjM2NzE4NzUsInkiOjQ3Mi45NDQzMTY2NTcwODI2fSx7IngiOjQ3Mi4wOTM3NSwieSI6NDk2fSx7IngiOjUwNS4xNDA2MjUsInkiOjUxNi40ODQyNjE1MDEyMTA3fV0=" data-look="classic" marker-end="url(#my-svg_class-dependencyEnd)"/><path d="M447.094,615L451.26,615C455.427,615,463.76,615,472.437,614.744C481.113,614.487,490.131,613.974,494.641,613.718L499.15,613.461" id="my-svg-id_RunReportWriter_RealTimeRunResult_5" class="edge-thickness-normal edge-pattern-dashed relation" style=";;;" data-edge="true" data-et="edge" data-id="id_RunReportWriter_RealTimeRunResult_5" data-points="W3sieCI6NDQ3LjA5Mzc1LCJ5Ijo2MTV9LHsieCI6NDcyLjA5Mzc1LCJ5Ijo2MTV9LHsieCI6NTA1LjE0MDYyNSwieSI6NjEzLjEyMDcwOTk1NDAxNzN9XQ==" data-look="classic" marker-end="url(#my-svg_class-dependencyEnd)"/></g><g class="edgeLabels"><g class="edgeLabel"><g class="label" data-id="id_VirtualTimeHarness_VirtualTimeScenario_1" transform="translate(0, 0)"><foreignObject width="0" height="0"><div xmlns="http://www.w3.org/1999/xhtml" class="labelBkg" style="display: table-cell; white-space: nowrap; line-height: 1.5; max-width: 200px; text-align: center;"><span class="edgeLabel"></span></div></foreignObject></g></g><g class="edgeLabel"><g class="label" data-id="id_VirtualTimeHarness_VirtualTimeRunResult_2" transform="translate(0, 0)"><foreignObject width="0" height="0"><div xmlns="http://www.w3.org/1999/xhtml" class="labelBkg" style="display: table-cell; white-space: nowrap; line-height: 1.5; max-width: 200px; text-align: center;"><span class="edgeLabel"></span></div></foreignObject></g></g><g class="edgeLabel"><g class="label" data-id="id_RealTimeHarness_RealTimeScenario_3" transform="translate(0, 0)"><foreignObject width="0" height="0"><div xmlns="http://www.w3.org/1999/xhtml" class="labelBkg" style="display: table-cell; white-space: nowrap; line-height: 1.5; max-width: 200px; text-align: center;"><span class="edgeLabel"></span></div></foreignObject></g></g><g class="edgeLabel"><g class="label" data-id="id_RealTimeHarness_RealTimeRunResult_4" transform="translate(0, 0)"><foreignObject width="0" height="0"><div xmlns="http://www.w3.org/1999/xhtml" class="labelBkg" style="display: table-cell; white-space: nowrap; line-height: 1.5; max-width: 200px; text-align: center;"><span class="edgeLabel"></span></div></foreignObject></g></g><g class="edgeLabel"><g class="label" data-id="id_RunReportWriter_RealTimeRunResult_5" transform="translate(0, 0)"><foreignObject width="0" height="0"><div xmlns="http://www.w3.org/1999/xhtml" class="labelBkg" style="display: table-cell; white-space: nowrap; line-height: 1.5; max-width: 200px; text-align: center;"><span class="edgeLabel"></span></div></foreignObject></g></g></g><g class="nodes"><g class="node default" id="my-svg-classId-VirtualTimeHarness-0" data-look="classic" transform="translate(227.546875, 117)"><g class="basic label-container outer-path"><path d="M-198.5546875 -96 L198.5546875 -96 L198.5546875 96 L-198.5546875 96" stroke="none" stroke-width="0" fill="#ECECFF" style=""/><path d="M-198.5546875 -96 C-76.52785717225403 -96, 45.49897315549194 -96, 198.5546875 -96 M-198.5546875 -96 C-109.6615993624163 -96, -20.768511224832594 -96, 198.5546875 -96 M198.5546875 -96 C198.5546875 -38.915762685406946, 198.5546875 18.168474629186107, 198.5546875 96 M198.5546875 -96 C198.5546875 -26.37210489439063, 198.5546875 43.25579021121874, 198.5546875 96 M198.5546875 96 C112.1399097437352 96, 25.725131987470405 96, -198.5546875 96 M198.5546875 96 C42.53062662397761 96, -113.49343425204478 96, -198.5546875 96 M-198.5546875 96 C-198.5546875 51.78887185645776, -198.5546875 7.57774371291552, -198.5546875 -96 M-198.5546875 96 C-198.5546875 38.43173084489894, -198.5546875 -19.136538310202127, -198.5546875 -96" stroke="#9370DB" stroke-width="1.3" fill="none" stroke-dasharray="0 0" style=""/></g><g class="annotation-group text" transform="translate(0, -72)"/><g class="label-group text" transform="translate(-72.96875, -72)"><g class="label" style="font-weight: bolder" transform="translate(0,-12)"><foreignObject width="145.9375" height="24"><div xmlns="http://www.w3.org/1999/xhtml" style="display: table-cell; white-space: nowrap; line-height: 1.5; max-width: 180px; text-align: center;"><span class="nodeLabel markdown-node-label" style=""><p>VirtualTimeHarness</p></span></div></foreignObject></g></g><g class="members-group text" transform="translate(-186.5546875, -24)"><g class="label" style="" transform="translate(0,-12)"><foreignObject width="180.71875" height="24"><div xmlns="http://www.w3.org/1999/xhtml" style="display: table-cell; white-space: nowrap; line-height: 1.5; max-width: 219px; text-align: center;"><span class="nodeLabel markdown-node-label" style=""><p>-joint_limits_ JointLimits</p></span></div></foreignObject></g><g class="label" style="" transform="translate(0,12)"><foreignObject width="297.71875" height="24"><div xmlns="http://www.w3.org/1999/xhtml" style="display: table-cell; white-space: nowrap; line-height: 1.5; max-width: 325px; text-align: center;"><span class="nodeLabel markdown-node-label" style=""><p>-configuration_ InterpolatorConfiguration</p></span></div></foreignObject></g></g><g class="methods-group text" transform="translate(-186.5546875, 48)"><g class="label" style="" transform="translate(0,-12)"><foreignObject width="300.140625" height="24"><div xmlns="http://www.w3.org/1999/xhtml" style="display: table-cell; white-space: nowrap; line-height: 1.5; max-width: 331px; text-align: center;"><span class="nodeLabel markdown-node-label" style=""><p>+VirtualTimeHarness(limits,configuration)</p></span></div></foreignObject></g><g class="label" style="" transform="translate(0,12)"><foreignObject width="272.3125" height="24"><div xmlns="http://www.w3.org/1999/xhtml" style="display: table-cell; white-space: nowrap; line-height: 1.5; max-width: 308px; text-align: center;"><span class="nodeLabel markdown-node-label" style=""><p>+run(scenario) : VirtualTimeRunResult</p></span></div></foreignObject></g></g><g class="divider" style=""><path d="M-198.5546875 -48 C-52.20732746857519 -47.99963146838316, 94.14003256284963 -47.99926293676632, 198.5546875 -47.999 M-198.5546875 -48 C-49.453170744252134 -47.999624532871444, 99.64834601149573 -47.99924906574288, 198.5546875 -47.999" stroke="#9370DB" stroke-width="1.3" fill="none" stroke-dasharray="0 0" style=""/></g><g class="divider" style=""><path d="M-198.5546875 24 C-113.58394293597166 24.000213973151766, -28.613198371943326 24.000427946303528, 198.5546875 24.001 M-198.5546875 24 C-108.45000527036824 24.000226901422888, -18.345323040736474 24.000453802845776, 198.5546875 24.001" stroke="#9370DB" stroke-width="1.3" fill="none" stroke-dasharray="0 0" style=""/></g></g><g class="node default" id="my-svg-classId-RealTimeHarness-1" data-look="classic" transform="translate(227.546875, 387)"><g class="basic label-container outer-path"><path d="M-192.8203125 -96 L192.8203125 -96 L192.8203125 96 L-192.8203125 96" stroke="none" stroke-width="0" fill="#ECECFF" style=""/><path d="M-192.8203125 -96 C-46.829809184847875 -96, 99.16069413030425 -96, 192.8203125 -96 M-192.8203125 -96 C-113.72954566117532 -96, -34.638778822350645 -96, 192.8203125 -96 M192.8203125 -96 C192.8203125 -38.41745245521516, 192.8203125 19.165095089569675, 192.8203125 96 M192.8203125 -96 C192.8203125 -42.65763971423485, 192.8203125 10.684720571530306, 192.8203125 96 M192.8203125 96 C86.90956752056842 96, -19.001177458863168 96, -192.8203125 96 M192.8203125 96 C54.418108297691305 96, -83.98409590461739 96, -192.8203125 96 M-192.8203125 96 C-192.8203125 50.27146491951077, -192.8203125 4.542929839021539, -192.8203125 -96 M-192.8203125 96 C-192.8203125 50.696106427006484, -192.8203125 5.392212854012968, -192.8203125 -96" stroke="#9370DB" stroke-width="1.3" fill="none" stroke-dasharray="0 0" style=""/></g><g class="annotation-group text" transform="translate(0, -72)"/><g class="label-group text" transform="translate(-63.921875, -72)"><g class="label" style="font-weight: bolder" transform="translate(0,-12)"><foreignObject width="127.84375" height="24"><div xmlns="http://www.w3.org/1999/xhtml" style="display: table-cell; white-space: nowrap; line-height: 1.5; max-width: 165px; text-align: center;"><span class="nodeLabel markdown-node-label" style=""><p>RealTimeHarness</p></span></div></foreignObject></g></g><g class="members-group text" transform="translate(-180.8203125, -24)"><g class="label" style="" transform="translate(0,-12)"><foreignObject width="180.71875" height="24"><div xmlns="http://www.w3.org/1999/xhtml" style="display: table-cell; white-space: nowrap; line-height: 1.5; max-width: 219px; text-align: center;"><span class="nodeLabel markdown-node-label" style=""><p>-joint_limits_ JointLimits</p></span></div></foreignObject></g><g class="label" style="" transform="translate(0,12)"><foreignObject width="297.71875" height="24"><div xmlns="http://www.w3.org/1999/xhtml" style="display: table-cell; white-space: nowrap; line-height: 1.5; max-width: 325px; text-align: center;"><span class="nodeLabel markdown-node-label" style=""><p>-configuration_ InterpolatorConfiguration</p></span></div></foreignObject></g></g><g class="methods-group text" transform="translate(-180.8203125, 48)"><g class="label" style="" transform="translate(0,-12)"><foreignObject width="282.546875" height="24"><div xmlns="http://www.w3.org/1999/xhtml" style="display: table-cell; white-space: nowrap; line-height: 1.5; max-width: 316px; text-align: center;"><span class="nodeLabel markdown-node-label" style=""><p>+RealTimeHarness(limits,configuration)</p></span></div></foreignObject></g><g class="label" style="" transform="translate(0,12)"><foreignObject width="254.71875" height="24"><div xmlns="http://www.w3.org/1999/xhtml" style="display: table-cell; white-space: nowrap; line-height: 1.5; max-width: 293px; text-align: center;"><span class="nodeLabel markdown-node-label" style=""><p>+run(scenario) : RealTimeRunResult</p></span></div></foreignObject></g></g><g class="divider" style=""><path d="M-192.8203125 -48 C-98.2029501871175 -47.999754648872084, -3.5855878742349887 -47.999509297744176, 192.8203125 -47.999 M-192.8203125 -48 C-64.5839466939756 -47.99966747184427, 63.65241911204879 -47.99933494368854, 192.8203125 -47.999" stroke="#9370DB" stroke-width="1.3" fill="none" stroke-dasharray="0 0" style=""/></g><g class="divider" style=""><path d="M-192.8203125 24 C-105.53496071194314 24.00022633858087, -18.249608923886285 24.00045267716174, 192.8203125 24.001 M-192.8203125 24 C-95.2455192101824 24.0002530200061, 2.329274079635212 24.0005060400122, 192.8203125 24.001" stroke="#9370DB" stroke-width="1.3" fill="none" stroke-dasharray="0 0" style=""/></g></g><g class="node default" id="my-svg-classId-RunReportWriter-2" data-look="classic" transform="translate(227.546875, 615)"><g class="basic label-container outer-path"><path d="M-219.546875 -72 L219.546875 -72 L219.546875 72 L-219.546875 72" stroke="none" stroke-width="0" fill="#ECECFF" style=""/><path d="M-219.546875 -72 C-59.42495776557456 -72, 100.69695946885088 -72, 219.546875 -72 M-219.546875 -72 C-109.89716851350819 -72, -0.24746202701638254 -72, 219.546875 -72 M219.546875 -72 C219.546875 -30.029559290225656, 219.546875 11.940881419548688, 219.546875 72 M219.546875 -72 C219.546875 -27.39082360324177, 219.546875 17.21835279351646, 219.546875 72 M219.546875 72 C127.53506305308679 72, 35.523251106173575 72, -219.546875 72 M219.546875 72 C84.52829528865809 72, -50.49028442268383 72, -219.546875 72 M-219.546875 72 C-219.546875 16.170478249457176, -219.546875 -39.65904350108565, -219.546875 -72 M-219.546875 72 C-219.546875 34.51394777047204, -219.546875 -2.972104459055913, -219.546875 -72" stroke="#9370DB" stroke-width="1.3" fill="none" stroke-dasharray="0 0" style=""/></g><g class="annotation-group text" transform="translate(0, -48)"/><g class="label-group text" transform="translate(-63.515625, -48)"><g class="label" style="font-weight: bolder" transform="translate(0,-12)"><foreignObject width="127.03125" height="24"><div xmlns="http://www.w3.org/1999/xhtml" style="display: table-cell; white-space: nowrap; line-height: 1.5; max-width: 163px; text-align: center;"><span class="nodeLabel markdown-node-label" style=""><p>RunReportWriter</p></span></div></foreignObject></g></g><g class="members-group text" transform="translate(-207.546875, 0)"><g class="label" style="" transform="translate(0,-12)"><foreignObject width="141.265625" height="24"><div xmlns="http://www.w3.org/1999/xhtml" style="display: table-cell; white-space: nowrap; line-height: 1.5; max-width: 189px; text-align: center;"><span class="nodeLabel markdown-node-label" style=""><p>+SchemaVersion = 3</p></span></div></foreignObject></g></g><g class="methods-group text" transform="translate(-207.546875, 48)"><g class="label" style="" transform="translate(0,-12)"><foreignObject width="351.578125" height="24"><div xmlns="http://www.w3.org/1999/xhtml" style="display: table-cell; white-space: nowrap; line-height: 1.5; max-width: 371px; text-align: center;"><span class="nodeLabel markdown-node-label" style=""><p>+write(run,report_directory) : ReportWriteResult</p></span></div></foreignObject></g></g><g class="divider" style=""><path d="M-219.546875 -24 C-79.87168790478728 -23.999681901217915, 59.80349919042544 -23.999363802435834, 219.546875 -23.999 M-219.546875 -24 C-83.77558169407803 -23.999690792015816, 51.995711611843944 -23.999381584031628, 219.546875 -23.999" stroke="#9370DB" stroke-width="1.3" fill="none" stroke-dasharray="0 0" style=""/></g><g class="divider" style=""><path d="M-219.546875 24 C-99.31745443238273 24.000273812643808, 20.911966135234536 24.00054762528762, 219.546875 24.001 M-219.546875 24 C-94.3265574075079 24.000285179002418, 30.89376018498419 24.000570358004836, 219.546875 24.001" stroke="#9370DB" stroke-width="1.3" fill="none" stroke-dasharray="0 0" style=""/></g></g><g class="node default" id="my-svg-classId-VirtualTimeScenario-3" data-look="classic" transform="translate(647.94140625, 50)"><g class="basic label-container outer-path"><path d="M-87.7109375 -42 L87.7109375 -42 L87.7109375 42 L-87.7109375 42" stroke="none" stroke-width="0" fill="#ECECFF" style=""/><path d="M-87.7109375 -42 C-46.117517026292155 -42, -4.524096552584311 -42, 87.7109375 -42 M-87.7109375 -42 C-45.75633316451647 -42, -3.801728829032939 -42, 87.7109375 -42 M87.7109375 -42 C87.7109375 -12.163057109536837, 87.7109375 17.673885780926327, 87.7109375 42 M87.7109375 -42 C87.7109375 -20.572636900057976, 87.7109375 0.8547261998840483, 87.7109375 42 M87.7109375 42 C29.317714604191288 42, -29.075508291617425 42, -87.7109375 42 M87.7109375 42 C50.38294632795113 42, 13.054955155902263 42, -87.7109375 42 M-87.7109375 42 C-87.7109375 11.926408223356127, -87.7109375 -18.147183553287746, -87.7109375 -42 M-87.7109375 42 C-87.7109375 25.071331846936808, -87.7109375 8.142663693873615, -87.7109375 -42" stroke="#9370DB" stroke-width="1.3" fill="none" stroke-dasharray="0 0" style=""/></g><g class="annotation-group text" transform="translate(0, -18)"/><g class="label-group text" transform="translate(-75.7109375, -18)"><g class="label" style="font-weight: bolder" transform="translate(0,-12)"><foreignObject width="151.421875" height="24"><div xmlns="http://www.w3.org/1999/xhtml" style="display: table-cell; white-space: nowrap; line-height: 1.5; max-width: 185px; text-align: center;"><span class="nodeLabel markdown-node-label" style=""><p>VirtualTimeScenario</p></span></div></foreignObject></g></g><g class="members-group text" transform="translate(-75.7109375, 30)"/><g class="methods-group text" transform="translate(-75.7109375, 60)"/><g class="divider" style=""><path d="M-87.7109375 6 C-31.501476898337103 6.000320424465887, 24.707983703325795 6.000640848931773, 87.7109375 6.001 M-87.7109375 6 C-23.252195822543413 6.000367449850126, 41.20654585491317 6.000734899700251, 87.7109375 6.001" stroke="#9370DB" stroke-width="1.3" fill="none" stroke-dasharray="0 0" style=""/></g><g class="divider" style=""><path d="M-87.7109375 24 C-33.610188576681836 24.00030840366359, 20.49056034663633 24.000616807327177, 87.7109375 24.001 M-87.7109375 24 C-26.661629692012227 24.000348014224613, 34.38767811597555 24.000696028449223, 87.7109375 24.001" stroke="#9370DB" stroke-width="1.3" fill="none" stroke-dasharray="0 0" style=""/></g></g><g class="node default" id="my-svg-classId-VirtualTimeRunResult-4" data-look="classic" transform="translate(647.94140625, 184)"><g class="basic label-container outer-path"><path d="M-93.1328125 -42 L93.1328125 -42 L93.1328125 42 L-93.1328125 42" stroke="none" stroke-width="0" fill="#ECECFF" style=""/><path d="M-93.1328125 -42 C-44.586989935766624 -42, 3.9588326284667517 -42, 93.1328125 -42 M-93.1328125 -42 C-29.59100592344508 -42, 33.95080065310984 -42, 93.1328125 -42 M93.1328125 -42 C93.1328125 -17.63273131126444, 93.1328125 6.734537377471121, 93.1328125 42 M93.1328125 -42 C93.1328125 -21.774501537022505, 93.1328125 -1.549003074045011, 93.1328125 42 M93.1328125 42 C27.53332410804211 42, -38.06616428391578 42, -93.1328125 42 M93.1328125 42 C20.803570598530143 42, -51.52567130293971 42, -93.1328125 42 M-93.1328125 42 C-93.1328125 24.927389490069938, -93.1328125 7.854778980139876, -93.1328125 -42 M-93.1328125 42 C-93.1328125 21.859185533286354, -93.1328125 1.7183710665727077, -93.1328125 -42" stroke="#9370DB" stroke-width="1.3" fill="none" stroke-dasharray="0 0" style=""/></g><g class="annotation-group text" transform="translate(0, -18)"/><g class="label-group text" transform="translate(-81.1328125, -18)"><g class="label" style="font-weight: bolder" transform="translate(0,-12)"><foreignObject width="162.265625" height="24"><div xmlns="http://www.w3.org/1999/xhtml" style="display: table-cell; white-space: nowrap; line-height: 1.5; max-width: 197px; text-align: center;"><span class="nodeLabel markdown-node-label" style=""><p>VirtualTimeRunResult</p></span></div></foreignObject></g></g><g class="members-group text" transform="translate(-81.1328125, 30)"/><g class="methods-group text" transform="translate(-81.1328125, 60)"/><g class="divider" style=""><path d="M-93.1328125 6 C-22.257969084137656 6.0003805041505425, 48.61687433172469 6.000761008301085, 93.1328125 6.001 M-93.1328125 6 C-31.45185568366624 6.000331145141871, 30.229101132667523 6.000662290283742, 93.1328125 6.001" stroke="#9370DB" stroke-width="1.3" fill="none" stroke-dasharray="0 0" style=""/></g><g class="divider" style=""><path d="M-93.1328125 24 C-49.08647888298681 24.000236470543705, -5.040145265973621 24.00047294108741, 93.1328125 24.001 M-93.1328125 24 C-27.664870657116964 24.000351476241754, 37.80307118576607 24.000702952483508, 93.1328125 24.001" stroke="#9370DB" stroke-width="1.3" fill="none" stroke-dasharray="0 0" style=""/></g></g><g class="node default" id="my-svg-classId-RealTimeScenario-5" data-look="classic" transform="translate(647.94140625, 348)"><g class="basic label-container outer-path"><path d="M-150.84765625 -72 L150.84765625 -72 L150.84765625 72 L-150.84765625 72" stroke="none" stroke-width="0" fill="#ECECFF" style=""/><path d="M-150.84765625 -72 C-61.774730361422385 -72, 27.29819552715523 -72, 150.84765625 -72 M-150.84765625 -72 C-76.73403449982088 -72, -2.6204127496417584 -72, 150.84765625 -72 M150.84765625 -72 C150.84765625 -32.56317699575018, 150.84765625 6.873646008499634, 150.84765625 72 M150.84765625 -72 C150.84765625 -39.137984424326696, 150.84765625 -6.275968848653392, 150.84765625 72 M150.84765625 72 C45.661884584396276 72, -59.52388708120745 72, -150.84765625 72 M150.84765625 72 C37.96920820526117 72, -74.90923983947766 72, -150.84765625 72 M-150.84765625 72 C-150.84765625 16.55105946942887, -150.84765625 -38.89788106114226, -150.84765625 -72 M-150.84765625 72 C-150.84765625 40.502191988474195, -150.84765625 9.004383976948382, -150.84765625 -72" stroke="#9370DB" stroke-width="1.3" fill="none" stroke-dasharray="0 0" style=""/></g><g class="annotation-group text" transform="translate(0, -48)"/><g class="label-group text" transform="translate(-66.6640625, -48)"><g class="label" style="font-weight: bolder" transform="translate(0,-12)"><foreignObject width="133.328125" height="24"><div xmlns="http://www.w3.org/1999/xhtml" style="display: table-cell; white-space: nowrap; line-height: 1.5; max-width: 170px; text-align: center;"><span class="nodeLabel markdown-node-label" style=""><p>RealTimeScenario</p></span></div></foreignObject></g></g><g class="members-group text" transform="translate(-138.84765625, 0)"><g class="label" style="" transform="translate(0,-12)"><foreignObject width="206.015625" height="24"><div xmlns="http://www.w3.org/1999/xhtml" style="display: table-cell; white-space: nowrap; line-height: 1.5; max-width: 238px; text-align: center;"><span class="nodeLabel markdown-node-label" style=""><p>+controller_wait_preference</p></span></div></foreignObject></g><g class="label" style="" transform="translate(0,12)"><foreignObject width="211.03125" height="24"><div xmlns="http://www.w3.org/1999/xhtml" style="display: table-cell; white-space: nowrap; line-height: 1.5; max-width: 248px; text-align: center;"><span class="nodeLabel markdown-node-label" style=""><p>+controller_logical_processor</p></span></div></foreignObject></g></g><g class="methods-group text" transform="translate(-138.84765625, 72)"/><g class="divider" style=""><path d="M-150.84765625 -24 C-39.44883442479045 -23.99963075720036, 71.9499874004191 -23.99926151440072, 150.84765625 -23.999 M-150.84765625 -24 C-49.28969498399141 -23.999663375740166, 52.26826628201718 -23.99932675148033, 150.84765625 -23.999" stroke="#9370DB" stroke-width="1.3" fill="none" stroke-dasharray="0 0" style=""/></g><g class="divider" style=""><path d="M-150.84765625 48 C-84.43250284522223 48.00022013982536, -18.017349440444463 48.00044027965071, 150.84765625 48.001 M-150.84765625 48 C-44.97009857293756 48.00035094200437, 60.90745910412488 48.000701884008734, 150.84765625 48.001" stroke="#9370DB" stroke-width="1.3" fill="none" stroke-dasharray="0 0" style=""/></g></g><g class="node default" id="my-svg-classId-RealTimeRunResult-6" data-look="classic" transform="translate(647.94140625, 605)"><g class="basic label-container outer-path"><path d="M-142.80078125 -96 L142.80078125 -96 L142.80078125 96 L-142.80078125 96" stroke="none" stroke-width="0" fill="#ECECFF" style=""/><path d="M-142.80078125 -96 C-79.38266330639641 -96, -15.964545362792819 -96, 142.80078125 -96 M-142.80078125 -96 C-56.07048461036389 -96, 30.659812029272217 -96, 142.80078125 -96 M142.80078125 -96 C142.80078125 -53.651085255402094, 142.80078125 -11.302170510804189, 142.80078125 96 M142.80078125 -96 C142.80078125 -38.86509632895704, 142.80078125 18.269807342085926, 142.80078125 96 M142.80078125 96 C28.638470537107395 96, -85.52384017578521 96, -142.80078125 96 M142.80078125 96 C32.076994515611204 96, -78.64679221877759 96, -142.80078125 96 M-142.80078125 96 C-142.80078125 31.2405574680958, -142.80078125 -33.5188850638084, -142.80078125 -96 M-142.80078125 96 C-142.80078125 21.376503618663108, -142.80078125 -53.246992762673784, -142.80078125 -96" stroke="#9370DB" stroke-width="1.3" fill="none" stroke-dasharray="0 0" style=""/></g><g class="annotation-group text" transform="translate(0, -72)"/><g class="label-group text" transform="translate(-72.0859375, -72)"><g class="label" style="font-weight: bolder" transform="translate(0,-12)"><foreignObject width="144.171875" height="24"><div xmlns="http://www.w3.org/1999/xhtml" style="display: table-cell; white-space: nowrap; line-height: 1.5; max-width: 182px; text-align: center;"><span class="nodeLabel markdown-node-label" style=""><p>RealTimeRunResult</p></span></div></foreignObject></g></g><g class="members-group text" transform="translate(-130.80078125, -24)"><g class="label" style="" transform="translate(0,-12)"><foreignObject width="185.609375" height="24"><div xmlns="http://www.w3.org/1999/xhtml" style="display: table-cell; white-space: nowrap; line-height: 1.5; max-width: 222px; text-align: center;"><span class="nodeLabel markdown-node-label" style=""><p>+controller_wait_strategy</p></span></div></foreignObject></g><g class="label" style="" transform="translate(0,12)"><foreignObject width="189.515625" height="24"><div xmlns="http://www.w3.org/1999/xhtml" style="display: table-cell; white-space: nowrap; line-height: 1.5; max-width: 226px; text-align: center;"><span class="nodeLabel markdown-node-label" style=""><p>+controller_affinity_result</p></span></div></foreignObject></g><g class="label" style="" transform="translate(0,36)"><foreignObject width="133.09375" height="24"><div xmlns="http://www.w3.org/1999/xhtml" style="display: table-cell; white-space: nowrap; line-height: 1.5; max-width: 176px; text-align: center;"><span class="nodeLabel markdown-node-label" style=""><p>+controller_timing</p></span></div></foreignObject></g><g class="label" style="" transform="translate(0,60)"><foreignObject width="165.703125" height="24"><div xmlns="http://www.w3.org/1999/xhtml" style="display: table-cell; white-space: nowrap; line-height: 1.5; max-width: 200px; text-align: center;"><span class="nodeLabel markdown-node-label" style=""><p>+p50/p95/p99 lateness</p></span></div></foreignObject></g></g><g class="methods-group text" transform="translate(-130.80078125, 96)"/><g class="divider" style=""><path d="M-142.80078125 -48 C-65.6848587579569 -47.999729987743, 11.431063734086194 -47.99945997548601, 142.80078125 -47.999 M-142.80078125 -48 C-52.69706453471652 -47.99968451252183, 37.406652180566965 -47.999369025043656, 142.80078125 -47.999" stroke="#9370DB" stroke-width="1.3" fill="none" stroke-dasharray="0 0" style=""/></g><g class="divider" style=""><path d="M-142.80078125 72 C-57.06608875323977 72.00030018985802, 28.668603743520464 72.00060037971603, 142.80078125 72.001 M-142.80078125 72 C-38.59279300126134 72.00036487191224, 65.61519524747732 72.0007297438245, 142.80078125 72.001" stroke="#9370DB" stroke-width="1.3" fill="none" stroke-dasharray="0 0" style=""/></g></g></g></g></g><defs><filter id="my-svg-drop-shadow" height="130%" width="130%"><feDropShadow dx="4" dy="4" stdDeviation="0" flood-opacity="0.06" flood-color="#000000"/></filter></defs><defs><filter id="my-svg-drop-shadow-small" height="150%" width="150%"><feDropShadow dx="2" dy="2" stdDeviation="0" flood-opacity="0.06" flood-color="#000000"/></filter></defs></svg>